<svg xmlns="http://www.w3.org/2000/svg" width="307.2" height="309.248" style="max-height:500px" viewBox="358.4 284.672 307.2 309.248"><path fill="#FEFEFE" d="M0 0h1024v1024H0z"/><path fill="#C21462" d="M452 300c1.796 1.38 1.796 1.38 3.61 3.133l2.038 1.945 2.102 2.047q2.052 1.975 4.11 3.945c.682.655 1.364 1.31 2.067 1.983 2.678 2.515 5.439 4.925 8.216 7.33 2.623 2.283 5.176 4.634 7.732 6.992A1717 1717 0 0 0 498 342q3.735 3.358 7.46 6.723a596 596 0 0 0 5.392 4.773l2.773 2.442 2.54 2.214C518 360 518 360 518 362l-3.125 1.013a11805 11805 0 0 0-71.97 23.586q-13.245 4.38-26.486 8.77-8.272 2.74-16.547 5.475-3.094 1.023-6.186 2.05C382.848 406.49 372.02 410.004 361 413c1.005-24.176 14.98-50.597 30-69l1.408-1.731c13.896-16.984 30.229-29.994 49.592-40.27l3.152-1.78c3.15-1.35 3.763-1.389 6.848-.22Z"/><path fill="#CA1765" d="M447 394c1.563 4.02.462 7.67-.441 11.719l-.493 2.307c-.535 2.493-1.082 4.983-1.628 7.474q-.564 2.61-1.124 5.219-1.394 6.476-2.807 12.95c-.947 4.356-1.879 8.717-2.81 13.077l-1.41 6.573a5583 5583 0 0 0-5.653 26.695 7340 7340 0 0 1-9.37 44.064A1458 1458 0 0 1 414 556c-19.987-9.583-34.303-35.592-43-55l-.958-2.136c-8.864-20.215-11.253-40.678-11.104-62.614l.013-3.883c.019-3.122.03-6.245.05-9.367q16.332-5.453 32.65-10.9l15.16-5.062c4.88-1.628 9.75-3.256 14.63-4.882l5.587-1.865q3.906-1.305 7.814-2.607l2.337-.783c3.256-1.083 6.492-2.098 9.828-2.901Z"/><path fill="#ED3845" d="M663 465c-3.056 31.167-20.794 59.754-42 82l-2.176 2.371c-8.928 9.433-19.77 16.593-30.886 23.192l-2.127 1.265c-3.846 2.224-7.514 3.932-11.811 5.172l-2.344-2.16c-5.149-4.738-10.31-9.448-15.597-14.031-3.513-3.09-6.952-6.26-10.407-9.41a405 405 0 0 0-6.59-5.84c-3.41-2.96-6.74-6.007-10.062-9.06a623 623 0 0 0-16.488-14.638l-2.512-2.18-2.313-1.988C506 518 506 518 506 516l33.953-11.16c23.146-7.608 46.297-15.2 69.458-22.767 10.534-3.441 21.068-6.885 31.577-10.405l2.23-.747q4.875-1.633 9.745-3.284l3.213-1.082 2.716-.923C661 465 661 465 663 465"/><path fill="#F23840" d="M610 322c18.097 8.15 31.24 32.088 40 49l1.68 3.23c3.03 6.193 5.38 12.536 7.508 19.082l.72 2.187c4.416 14.192 5.517 27.734 5.28 42.5q-.024 2.493-.042 4.985-.05 6.008-.146 12.016l-1.603.505q-8.325 2.621-16.647 5.257-3.097.979-6.197 1.955-4.477 1.41-8.951 2.83l-2.76.865c-5.316 1.691-10.486 3.596-15.649 5.705-2.513 1.012-5.047 1.887-7.63 2.7l-2.774.876-2.789.87-2.79.88c-2.733.861-5.471 1.71-8.21 2.557l-2.809.882-2.691.833-2.406.75C579 483 579 483 576 483c.655-7.144 1.955-13.998 3.5-21l.79-3.632q1.107-5.077 2.223-10.152 1.018-4.635 2.032-9.274c3.046-13.916 6.1-27.83 9.182-41.74q1.42-6.412 2.836-12.827l.558-2.53c3.284-14.904 6.387-29.841 9.405-44.8l.484-2.392q.446-2.206.887-4.414c.57-2.82 1.192-5.51 2.103-8.24Z"/><path fill="#D81E4F" d="M602 314c-1.323 8.342-2.894 16.605-4.645 24.867l-.762 3.624q-.796 3.78-1.596 7.56-1.199 5.67-2.39 11.34c-3.07 14.575-6.252 29.111-9.607 43.615-4.079-1.885-7.023-4.618-10.25-7.688l-3.516-3.292-1.7-1.596A196 196 0 0 0 562 387.5c-4.167-3.602-8.19-7.356-12.227-11.102-2.847-2.636-5.707-5.243-8.648-7.773-3.976-3.434-7.793-7.032-11.625-10.625-4.43-4.155-8.876-8.268-13.48-12.23-2.715-2.379-5.366-4.825-8.02-7.27a536 536 0 0 0-11.941-10.691c-3.515-3.088-6.955-6.258-10.41-9.41a382 382 0 0 0-6.524-5.774c-4.345-3.766-8.54-7.693-12.734-11.626-2.959-2.824-2.959-2.824-6.391-5v-2c3.64-1.227 7.3-2.356 10.991-3.417a366 366 0 0 0 5.767-1.738c41.908-11.57 90.482.34 125.242 25.156"/><path fill="#E42A4C" d="M441 473c3.037 1.366 5.21 2.93 7.61 5.23.672.64 1.345 1.278 2.038 1.936l2.102 2.022c4.721 4.51 9.48 8.938 14.415 13.216 2.482 2.159 4.91 4.375 7.335 6.596 3.79 3.456 7.61 6.865 11.48 10.23 4.917 4.309 9.746 8.717 14.598 13.098 3.787 3.415 7.578 6.822 11.422 10.172 5.52 4.811 10.95 9.726 16.367 14.652a589 589 0 0 0 14.383 12.598c7.29 6.196 14.287 12.69 21.25 19.25-1 2-1 2-4.246 3.219q-2.091.655-4.192 1.28l-2.207.672c-37.17 11.09-79.738 5.67-113.799-12.473-13.19-7.332-13.19-7.332-16.556-10.698.277-8.982 2.538-17.737 4.466-26.482 1.023-4.64 2.028-9.284 3.034-13.928l.626-2.883c2.223-10.262 4.338-20.545 6.437-30.832l.531-2.604q1.457-7.134 2.906-14.27Z"/><path fill="#ED3B3F" d="M618 635h20v86h-19l-1-54c-9.49 15.816-9.49 15.816-18.965 31.64C597 701 597 701 594.58 701.423 592 701 592 701 590.26 699.17l-1.564-2.562-1.77-2.843c-.593-.996-1.188-1.99-1.8-3.016l-1.777-2.875c-4.237-6.89-8.271-13.887-12.348-20.875l-1 54h-18v-85h20c6.168 6.558 6.168 6.558 7.557 9.563l.94 1.96.94 1.977a389 389 0 0 0 2.057 3.844 276 276 0 0 1 3.822 7.37c2.014 3.93 4.266 7.595 6.684 11.286 2.906-3.5 5.385-7.08 7.75-10.965l1.03-1.684q1.615-2.642 3.22-5.288 1.608-2.64 3.22-5.278 1.462-2.397 2.92-4.796c1.89-3.037 3.876-6.013 5.86-8.99Z"/><path fill="#BE175B" d="M409 635h17c5.767 11.19 10.786 22.596 15.688 34.188q2.373 5.587 4.753 11.171l1.179 2.766a992 992 0 0 0 7.22 16.516l.867 1.934q1.957 4.353 3.94 8.693c.45.993.898 1.986 1.36 3.01l1.177 2.57C463 718 463 718 463 721h-19c-2.862-6.1-5.137-11.48-7-18h-39l-3 9-3 9h-20c1.184-3.553 2.293-6.849 3.765-10.244l1.026-2.378 1.104-2.534 1.163-2.69q1.875-4.329 3.755-8.654l2.582-5.96q2.583-5.963 5.17-11.924a7577 7577 0 0 0 6.478-14.983l2.638-6.11q1.2-2.78 2.396-5.56l1.454-3.361 1.237-2.865c1.328-2.95 2.785-5.843 4.232-8.737"/><path fill="#DA2253" d="M530.922 639.719c3.596 2.452 7.244 4.943 10.078 8.28-.313 2.188-.313 2.188-1 4h-2v2c-1.68 1.728-1.68 1.728-3.875 3.626l-2.18 1.914C530 661 530 661 528 661l-2-2.25c-4.96-5.09-11.668-6.975-18.625-7.188-6.937.313-11.953 1.84-17.125 6.563-5.942 6.514-7.954 13.033-7.64 21.809 1.013 7.958 3.78 15.397 10.152 20.468 6.655 4.44 13.45 4.71 21.238 3.598 5.492-1.828 10.295-4.453 14-9 3.478 1.516 5.956 3.577 8.75 6.125l2.422 2.195L541 705c-3.135 7.219-9.817 11.836-16.813 15-10.565 3.646-23.46 3.965-33.937-.125-11.976-6.013-20.508-14.729-25.156-27.332-3.694-11.68-3.324-23.42 1.906-34.543 6.576-11.604 15.729-18.902 28.332-23.113 11.925-2.883 24.984-1.407 35.59 4.832"/><path fill="#F6F4F8" d="m706 742 9.75-.125 3.054-.055 2.43-.015 2.476-.032c2.51.249 4.068 1.089 6.29 2.227 1.987-.848 1.987-.848 4-2 2.438-.266 2.438-.266 5-.25l2.563-.016c2.572.28 4.217.971 6.437 2.266l-1 4-1.563-.5c-3.17-.65-6.21-.562-9.437-.5.16 1.973.16 1.973 1 4 1.984 1.03 1.984 1.03 4.375 1.563 3.357.88 5.517 1.583 7.625 4.437-.125 3.498-.274 6.01-2.375 8.875-3.69 2.555-7.29 2.424-11.625 2.125-2.813-1.5-2.813-1.5-5-3h-2l-2 3c-2.063.34-2.063.34-4.57.293l-2.446-.023-3.11-.082L706 768z"/><path fill="#472256" d="M654 742c4.593 1.797 6.747 4.662 9 9 .872 5.992-.605 9.23-4 14-3.507 3.02-6.591 3.48-11.078 3.285-4.027-.597-6.296-2.694-9.172-5.41-2.37-3.894-3.095-7.326-2.75-11.875 4.175-8.35 9.156-10.035 18-9"/><path fill="#533060" d="M532 742h6c2.117 2.188 2.117 2.188 3.875 5l1.805 2.813L545 752c2.472-2.36 4.147-4.255 5.875-7.25L553 742h6v25h-5l-1-16-7 11c-4-4-4-4-8-11l-1 17h-5z"/><path fill="#482355" d="M605 742h6c2.117 2.406 2.117 2.406 3.875 5.5l1.805 3.094L618 753l1.32-2.406 1.805-3.094 1.758-3.094L625 742h6v26h-5l-1-16-7 10c-3.23-3.23-4.827-6.028-7-10l-1 16h-5z"/><path fill="#FAF5F9" d="M417 658c2.336 2.89 3.854 5.664 5.262 9.098l1.2 2.927 1.226 3.038c.415 1.006.83 2.012 1.26 3.048 3.052 7.504 3.052 7.504 3.052 10.89h-24c3.627-9.871 7.292-19.584 12-29Z"/><path fill="#674A76" d="M478 742c5 0 5 0 6.67 1.469l1.443 2.03 1.592 2.188 1.608 2.313 1.666 2.313A552 552 0 0 1 495 758l1-16h5v26c-5 0-5 0-6.67-1.469l-1.443-2.03-1.592-2.188c-.53-.764-1.06-1.527-1.608-2.313l-1.666-2.313A552 552 0 0 1 484 752l-1 16h-5z"/><path fill="#4A1E57" d="M386 742h6a3159 3159 0 0 1 5 11.313l1.445 3.248 1.368 3.115c.418.948.837 1.896 1.27 2.872C402 765 402 765 402 768h-5l-2-5h-13l-2 4h-4c.602-3.567 1.562-6.578 3.066-9.863l1.221-2.686 1.276-2.76 1.287-2.82q1.568-3.436 3.15-6.865Z"/><path fill="#795C87" d="M706 742h19v4h-14v6h13v5h-13v6h15v5h-20z"/><path fill="#431E50" d="M574 742h5c1.676 3.6 3.34 7.206 5 10.813l1.445 3.103 1.367 2.979 1.27 2.745C589 764 589 764 589 767h-5l-1-5c-2.126.06-4.25.149-6.375.25l-3.586.14c-3.152.266-3.152.266-4.453 2.657L568 767h-5c3.148-8.636 6.731-16.859 11-25"/><path fill="#3C164A" d="M282 742h5q1.659 3.53 3.313 7.063l.935 1.99A821 821 0 0 1 294 757l.9 1.953c1.283 2.867 2.1 4.868 2.1 8.047l-5-1-1-4c-2.126.06-4.25.149-6.375.25l-3.586.14c-3.152.266-3.152.266-4.453 2.657L276 767h-4c.602-3.567 1.562-6.578 3.066-9.863l1.221-2.686 1.276-2.76 1.287-2.82q1.568-3.436 3.15-6.865Z"/><path fill="#411A4F" d="M508 742h19v4h-15v7h13v4h-13v6h15v4h-19z"/><path fill="#4A2557" d="M744 742c2.313 1.023 2.313 1.023 4 2l-1 4-1.563-.5c-3.17-.65-6.21-.562-9.437-.5.16 1.973.16 1.973 1 4 1.984 1.03 1.984 1.03 4.375 1.563 3.357.88 5.517 1.583 7.625 4.437-.125 3.498-.274 6.01-2.375 8.875-3.693 2.557-7.285 2.493-11.625 2.125-3.438-1.875-3.438-1.875-6-4v-2a88 88 0 0 1 5-1l1 1c2.67.141 5.324.042 8 0-.16-1.973-.16-1.973-1-4-1.984-1.03-1.984-1.03-4.375-1.563-3.383-.886-5.443-1.628-7.625-4.437-.52-3.486-.399-5.312 1.375-8.375 3.997-2.474 8.038-2.257 12.625-1.625"/><path fill="#422254" d="M350 742h5l1 20h9c1.976-2.963 2.264-3.68 2.414-7.012l.117-2.295.094-2.38.117-2.417c.094-1.965.177-3.93.258-5.896h4c.081 3.063.14 6.124.188 9.188l.076 2.62c.056 4.902-.04 8.22-3.264 12.192-3.422 2.566-6.846 2.364-11 2-3.351-1.37-4.686-2.505-6.629-5.563-1.711-4.29-1.71-7.754-1.558-12.312l.04-2.375c.036-1.917.09-3.834.147-5.75"/><path fill="#F6F5F8" d="M653 746c2.938 2.063 2.938 2.063 5 5 .664 4.128.435 6.2-1.563 9.875-3.217 2.805-5.19 3.2-9.437 3.125-2.875-1.375-2.875-1.375-5-4-1.032-3.078-1.38-5.77-1-9 3.237-4.957 6.214-6.033 12-5"/><path fill="#4A275B" d="m451.375 741.75 2.898-.078c3.106.374 4.432 1.262 6.727 3.328l-2 4-1.563-1c-3.351-1.375-5.847-1.385-9.437-1-2.686 1.27-2.686 1.27-4 4-.303 4.19.04 7.745 2.625 11.125 4.431 1.633 8.955.112 13.375-1.125l2 3c-4.33 2.886-7.715 4.779-13.004 4.531-3.79-1.009-6.432-3.662-8.996-6.53-1.981-3.964-1.558-8.693-1-13 2.867-5.542 6.388-7.155 12.375-7.25Z"/><path fill="#431B4E" d="m313 741.688 2.563-.051c2.89.43 4.265 1.458 6.437 3.363l-1 3-2.063-.5c-3.486-.593-6.408-.885-9.937-.5-2.924 2.549-3.85 4.195-4.563 8 .777 4.142 2.135 5.593 5.563 8 3.578 0 3.578 0 7-1l2.438-.563L321 761l2 3c-4.327 2.885-7.717 4.785-13.004 4.527-3.786-1-6.519-3.576-8.996-6.527-1.446-4.339-1.529-8.466-1-13 3.155-5.41 6.846-7.284 13-7.313Z"/><path fill="#492155" d="M665 742h5c2.85 5.598 5.482 11.245 8 17l7-17h5c-2.624 8.644-6.314 16.77-10 25h-5z"/><path fill="#DC195A" d="M516 524h2v2h2v3h5v3l1.625.75c2.972 1.564 5.687 3.234 8.375 5.25v3l3 1 1 2a76 76 0 0 0 3.25 2.875l1.895 1.602a180 180 0 0 0 4.793 3.773L551 554v2l1.75.688C555 558 555 558 556.938 560.438c1.885 2.65 1.885 2.65 4.5 4 3.278 1.999 5.143 4.599 7.562 7.562 2.28 2.56 2.28 2.56 5 4 3.028-.536 3.028-.536 6-2l6-2c-3.459 4.18-6.983 5.328-12 7l-2.344-2.16c-5.149-4.738-10.31-9.448-15.597-14.031-3.513-3.09-6.952-6.26-10.407-9.41a405 405 0 0 0-6.59-5.84c-3.94-3.42-7.775-6.959-11.614-10.49A516 516 0 0 0 515 525.999z"/><path fill="#583364" d="M325 742h21v4h-8v22h-5v-22h-8z"/><path fill="#321342" d="M386 742h6a775 775 0 0 1 2.5 5.75l1.406 3.234C397 754 397 754 397 758c-1.176 1.738-1.176 1.738-3 3-2.48.293-2.48.293-5.188.188l-2.73-.083L384 761l-1-2a92 92 0 0 1 2.438-6.125l1.433-3.32 1.13-2.555h3c-.67-3.113-.67-3.113-3.063-4.188z"/><path fill="#613F6C" d="M605 742h6l1 3h-2l4 8-2 1-1-2-1 16h-5z"/><path fill="#461D52" d="M407 742h4v22h13v3h-17z"/><path fill="#48225A" d="M289 746c4.777 9.226 4.777 9.226 3 15h-2v-2l-10-1c2.449-8.449 2.449-8.449 5.063-11.063C287 746 287 746 289 746"/><path fill="#4D245C" d="m303 754 .688 1.688c1.767 3.114 3.475 5.106 6.312 7.312 3.578 0 3.578 0 7-1l2.438-.563L321 761l2 3c-4.327 2.885-7.714 4.78-13 4.531-3.762-1-6.55-3.577-9-6.53v-2h2z"/><path fill="#401749" d="M695 742h4v25h-4z"/><path fill="#390E45" d="M479 742c5 1 5 1 6.875 2.813C487 747 487 747 486.688 749.25L486 751l-3-2-1 18h-3z"/><path fill="#3A1447" d="M467 742h4v25h-4z"/><path fill="#4A2A56" d="M707 755c3 3 3 3 4 7l15 1v4h-19z"/><path fill="#5D3865" d="M350 742h5l1 20h-3v-2l-3-1z"/><path fill="#5D3B6A" d="M478 742h1v25h3v-18h3l1 1 2-2c.894 1.236 1.765 2.49 2.625 3.75l1.477 2.11c.898 2.14.898 2.14.046 4.406L491 760c-2.657-2.565-4.76-5.013-7-8l-1 16h-5z"/><path fill="#4A2959" d="m275 757 1.05 1.457c2.902 2.297 5.492 2.063 9.137 2.23l3.856.2L292 761v-4h2c3 6.625 3 6.625 3 10l-5-1-1-4c-2.126.06-4.25.149-6.375.25l-3.586.14c-3.152.266-3.152.266-4.453 2.657L276 767h-4c.61-3.558 1.578-6.683 3-10"/><path fill="#ED2B5D" d="M640 462c-3.377 2.251-6.719 3.241-10.563 4.375-4.479 1.355-8.88 2.715-13.187 4.563-5.12 2.132-10.39 3.75-15.688 5.375l-2.696.845-2.55.768-2.298.7C591 479 591 479 588 478c12.63-4.97 25.483-9.122 38.43-13.182a276 276 0 0 0 6.133-2.045c2.604-.826 4.721-.933 7.437-.773"/><path fill="#4D2958" d="m744 759 .875 1.938c.953 2.214.953 2.214 3.125 3.062-2.888 3.163-4.988 3.905-9.313 4.313-4.334-.368-6.368-1.56-9.687-4.313v-2a88 88 0 0 1 5-1l1 1c2.67.141 5.324.042 8 0z"/><path fill="#4A1E54" d="M368 742h4c.058 3.104.094 6.208.125 9.313.017.88.034 1.762.05 2.67l.02 2.568.032 2.37c-.227 2.08-.227 2.08-2.227 5.08h-2z"/><path fill="#360F41" d="m533 743 3 1h-2c.342 2.97.342 2.97 1 6l2 1v16h-4z"/><path fill="#3E144D" d="M497 743h3v24h-4l2-5h-2z"/><path fill="#4B295B" d="m656 760 4 4c-4.9 3.92-7.729 4.607-14 4-2.5-1-2.5-1-4-2v-2h2v-2l3.75.688c3.119.409 3.931.495 6.75-1.125z"/><path fill="#411A4E" d="M637 749h3l2.246 8.203c.61 2.26 1.196 4.523 1.754 6.797l-3 1c-3.823-3.823-4.558-6.832-5.02-12.012C636 751 636 751 637 749"/><path fill="#351242" d="m575.188 757.375 3.292.336L581 758l-1 3h-10l-2 6h-5a229 229 0 0 1 1.313-3.875l.738-2.18c2.278-4.67 5.631-4.054 10.136-3.57Z"/><path fill="#401A4E" d="M707 742h18v3h-14l-1 7-1-2h-2z"/><path fill="#361246" d="M409 758h1v6h14v3h-17v-7h2z"/><path fill="#502A61" d="M397 756c3.287 3.287 5 7.359 5 12h-5l-2-5-13-1v-1h12l1-3h2z"/><path fill="#3C1346" d="M334 746h3v21h-3z"/><path fill="#411C4D" d="m442 745 4 1-.938 2c-1.312 3.705-1.665 7.093-2.062 11l-4 1c-.081-1.75-.14-3.5-.188-5.25l-.105-2.953c.332-3.172 1.18-4.467 3.293-6.797"/><path fill="#36103F" d="M607 744h1c1.06 7.69 1.1 15.245 1 23h-3a3037 3037 0 0 1-.063-10.938l-.025-3.154-.01-2.998-.016-2.777C606 745 606 745 607 744"/><path fill="#502C5C" d="M282 742h5c.688 1.75.688 1.75 1 4-1.438 2.25-1.438 2.25-3 4l-1-1-2 3-1-1-2 2c-1-3-1-3-.223-5.043l1.16-2.144 1.153-2.168z"/><path fill="#DAD6DC" d="M576 748c2.645 3.125 3.844 6.088 5 10h-9q.714-2.22 1.438-4.438l.808-2.496C575 749 575 749 576 748"/><path fill="#D8D7DD" d="M388 748c3.442 2.66 3.995 5.903 5 10h-9c1.11-3.487 2.263-6.775 4-10"/><path fill="#E2E1E7" d="M284 748c2.834 3.203 3.52 5.78 4 10h-8q.715-2.22 1.438-4.438l.808-2.496C283 749 283 749 284 748"/><path fill="#DE2457" d="M585 437c2 3 2 3 1.54 6.469q-.44 2.02-.915 4.031c-1.21 5.195-1.21 5.195-1.625 10.5-1.5 2.188-1.5 2.188-3 4-.22-6.025.506-11.175 2-17l.578-2.348c.466-1.886.943-3.77 1.422-5.652"/><path fill="#3D1449" d="m644.164 742.805 2.461.07 2.477.055L651 743v2l-2.813.188c-3.379.487-3.379.487-4.937 3.375L642 751h-2v-2h-2c2.747-5.887 2.747-5.887 6.164-6.195"/><path fill="#4C2D5A" d="M512 763h15v4h-11v-2z"/><path fill="#3F204B" d="M660 751h3c.29 4.93.197 8.093-3 12h-3v-3h2l-.063-3.938A59 59 0 0 1 659 752z"/><path fill="#340E42" d="M556 756h2v11h-4a293 293 0 0 1-.125-4.375l-.07-2.46C554 758 554 758 556 756"/><path fill="#4B2B5D" d="M460.25 761.875 462 763c-2.848 3.044-4.698 4.89-9.043 5.098l-2.144-.035L447 768v-1l6-1 1-3c2.486-1.8 3.333-2.26 6.25-1.125"/><path fill="#421E51" d="M610 745h3c3.092 3.958 3.94 8.192 5 13l-4-1-.875-3.375c-.817-3.628-.817-3.628-3.125-5.625z"/><path fill="#4E295F" d="M386 742h6l3 9-4 3-3-7h3c-.669-3.113-.669-3.113-3.063-4.188z"/><path fill="#E3175D" d="M610 472c-6.057 3.314-12.158 5.817-19 7l-3-1q3.874-1.472 7.75-2.938l2.21-.841 2.15-.81 1.967-.747c5.471-1.89 5.471-1.89 7.923-.664"/><path fill="#442251" d="M319 761c2.125.938 2.125.938 4 2-1.563 2-1.563 2-4 4-3.75.25-3.75.25-7 0 4.75-4.875 4.75-4.875 7-6"/><path fill="#513161" d="M570 761h14v2l4-1 1 5h-5l-1-5h-13z"/><path fill="#3A154C" d="M711 753h13v3h-13z"/><path fill="#2F0A40" d="M512 753h13v3h-13z"/><path fill="#350D3E" d="M707 755c3 3 3 3 3.188 6.688L710 765h2v2h-5z"/><path fill="#441C50" d="M665 742h5c2.125 6.75 2.125 6.75 1 9-3-1-3-1-3.95-2.848l-.737-2.215-.762-2.222z"/><path fill="#F5484E" d="m535 643 6 5-1 4h-2v2a125 125 0 0 1-6 4c1.25-3.653 1.67-4.78 5-7 .724-2.06.724-2.06 1-4h-2z"/><path fill="#431F4D" d="M744 754c3.875 1.875 3.875 1.875 5 3 .04 1.666.043 3.334 0 5l-4 2c-1-6.625-1-6.625-1-10"/><path fill="#340D3F" d="M698 751h1v16h-4z"/><path fill="#492155" d="M685 742h5l-2 7-5-1z"/><path fill="#360D44" d="M386 743h5v4h-3l-1 5-3 1z"/><path fill="#482557" d="M315 742c2.375.25 2.375.25 5 1 1.313 2.063 1.313 2.063 2 4-4.002 1.6-7.046.293-11-1l4-2z"/><path fill="#31173F" d="M277 758q2.688-.039 5.375-.063l3.023-.035C288 758 288 758 290 759v2h-12z"/><path fill="#350F45" d="M498 755c2 2 2 2 2.195 4.383l-.07 2.742-.055 2.758L500 767h-4l2-5h-2z"/><path fill="#471B52" d="M695 742h4v5h-2l-1 7h-1z"/><path fill="#CF195F" d="M474 706c2.73 1.112 4.193 2.204 6.25 4.375 3.28 3.131 6.643 4.8 10.75 6.625v2c-6.676-1.669-12.465-5.847-17-11z"/><path fill="#50315F" d="M368 756h1v10l-3 1-1-2c-3.03-.658-3.03-.658-6-1v-1l3.375-.688c3.785-.918 3.785-.918 5.063-3.937z"/><path fill="#441D53" d="M542 749c2 2 2 2 2 5h2l-1 5-1-2-2-.938C540 755 540 755 539 752h2z"/><path fill="#421755" d="M393 750c2 1.75 2 1.75 4 4v4l-4 1c-1.125-5.625-1.125-5.625 0-9"/><path fill="#502A60" d="m455 742 5 2v4c-3.61 0-6.558-.96-10-2v-1l5-1z"/><path fill="#A71C61" d="M383 696h1c.501 5.264-.688 7.91-4 12h-2q.68-2.159 1.375-4.313l.773-2.425C381 699 381 699 383 696"/><path fill="#D52960" d="M481 642c0 3 0 3-1.75 5.043l-2.25 2.144-2.25 2.168L473 653l-2-1a832 832 0 0 1 3.313-3.875l1.863-2.18C478 644 478 644 481 642"/><path fill="#B5165A" d="M588 365h3c-.875 7.625-.875 7.625-2 11h-3c.523-2.763 1.109-5.326 2-8z"/><path fill="#F96D57" d="m610 322 4 2-1.375 2.063c-1.793 3.241-2.713 6.357-3.625 9.937h-1q.212-2.657.438-5.313c.08-.986.162-1.972.246-2.988.316-2.7.316-2.7 1.316-5.7Z"/><path fill="#573466" d="M544 752h3l2 6-4 4-3-5 3 1 1-4h-2z"/><path fill="#562F5E" d="M637 749h3c1.354 2.709 1.065 5.01 1 8h-2v-4h-2l-1 4c-.125-5.75-.125-5.75 1-8"/><path fill="#40184C" d="M479 742c3.075.332 4.618.631 6.875 2.813C487 747 487 747 486.688 749.25L486 751l-1.813-2.313c-2.04-2.599-2.04-2.599-3.937-4.437L479 743z"/><path fill="#E02259" d="M506 516h5l3 7c-3.786-.54-5.554-2.117-8-5z"/><path fill="#42214F" d="M569 760c1 3 1 3 .063 5.188L568 767h-5l2-6h3z"/><path fill="#D9296A" d="M492 655c-1.532 3.448-3.606 6.098-6 9a487 487 0 0 0-3 4c.257-5.272 2.172-7.871 5.527-11.68C490 655 490 655 492 655"/><path fill="#AE1961" d="M495 341c3.183 1.43 5.58 3.19 8.188 5.5l2.105 1.844C507 350 507 350 508 352c-4.731-1.494-4.731-1.494-6.063-4l-.937-2a90 90 0 0 0-4-2z"/><path fill="#DDDCE5" d="M278 762h13l1 3-3-1c-4.249-.407-7.818-.692-11.563 1.5L276 767z"/><path fill="#350E3F" d="M351 743h3v8h-3z"/><path fill="#4C2059" d="M569 752h4l-1 6h-5z"/><path fill="#EF3F4D" d="M519 653c3.877.539 5.976 1.561 9 4a88 88 0 0 0 4 2l-4 2-2.25-2.313c-2.176-2.126-4.272-3.943-6.75-5.687"/><path fill="#F85250" d="M470 291v2c-3 2-3 2-7 2l-1 2-2-1v-2q1.935-.755 3.875-1.5l2.18-.844C468 291 468 291 470 291"/><path fill="#563065" d="M307 764h7l-1 2 3 2h-8z"/><path fill="#3E1750" d="m293 761 3 1 1 5-5-1z"/><path fill="#5F3F68" d="m736.625 761.938 3.04.59L742 763v1c-6.4 1.23-6.4 1.23-9.438.063L731 763l-1 2-1-3c2.815-1.407 4.57-.667 7.625-.063Z"/><path fill="#3A1546" d="M442 745c2.063.438 2.063.438 4 1l-3 7h-2q-.062-3.5 0-7z"/><path fill="#EB183E" d="M539 707c-1.152 2.468-2.048 4.048-4 6h-3c.25-1.875.25-1.875 1-4 2.147-1.385 3.439-2 6-2"/><path fill="#EB296D" d="M405 549c2.972 1.125 5.334 2.223 8 4v-2h2l-1 5c-3.817-1.555-6.192-4.036-9-7"/><path fill="#E81E6A" d="m390 532 5 2v2h2l1 6c-3.288-3.11-5.837-6.016-8-10"/><path fill="#E7E8EE" d="m610 751 4 4-3 1v10h-1z"/><path fill="#3D154A" d="M282 742h5l-1 4-5 1z"/><path fill="#E92854" d="m531 711 1 2 2 1-7 4a101 101 0 0 1 2-6z"/><path fill="#F74952" d="M509 533q1.659 1.404 3.313 2.813l1.863 1.582A88 88 0 0 1 519 542l-5-1v-2h-2v-2l-3-1z"/><path fill="#E22F76" d="M369 382c1.124 3.304.896 5.05-.438 8.25l-.87 2.14L367 394h-2q.716-2.438 1.438-4.875l.808-2.742C368 384 368 384 369 382"/><path fill="#B52466" d="M511 355c2.867 1.285 4.976 2.571 7 5v2h-5v-3c-.95-2.15-.95-2.15-2-4"/><path fill="#3B154A" d="m680 762 1 3-1 2h-5l1-4z"/><path fill="#C9C8D2" d="M562 764h2v2l4 2h-14v-1h7z"/><path fill="#573163" d="m676 758 3 1c.688 2.063.688 2.063 1 4l-6 2zm4 3h2l-1 2z"/><path fill="#EAEAEE" d="M570 762h13v1l-2.266.113-2.984.2-2.953.175c-3.05.558-4.504 1.476-6.797 3.512z"/><path fill="#3B1546" d="M659 752h1v7h2l-2 4h-3v-3h2z"/><path fill="#ED414C" d="m599 693 2 1-4 7-3-2v-2l5-2z"/><path fill="#DE2160" d="M516 524h2v2h2v3l3 1-2 2-6-7z"/><path fill="#DA1056" d="m577 478 1 3 8-2-1 2c-2.066.633-2.066.633-4.563 1.125l-2.503.508c-.638.12-1.277.242-1.934.367z"/><path fill="#573463" d="M351 760h2l2 2 3 1h-2l1 4c-2.993-1.098-3.846-1.677-5.25-4.625z"/><path fill="#EA2253" d="M533 360c2.92 1.31 4.756 2.756 7 5l3 1-1 3a592 592 0 0 1-3.375-2.813l-1.898-1.582C535 363 535 363 533 360"/><path fill="#A61B64" d="M449.813 299.063c3.402 1.458 4.952 4.02 7.187 6.937l-4-2-2.063-1C449 302 449 302 446 300c2-1 2-1 3.813-.938Z"/><path fill="#321246" d="m454 764-1 3h-6l-1-2c2.928-.976 4.956-1.082 8-1"/><path fill="#431C53" d="m381 761 1 2c-.938 2.125-.938 2.125-2 4h-4v-3c2.5-1.688 2.5-1.688 5-3"/><path fill="#351144" d="M369 755h2v8l-3 1z"/><path fill="#E62470" d="M419 522h2a438 438 0 0 1-2 13h-1a701 701 0 0 1-.063-4.813l-.035-2.707C418 525 418 525 419 522"/><path fill="#AE2065" d="M458 307c3.795 1.49 5.61 3.757 8 7l-6-1 1-3-3-1z"/><path fill="#F5483B" d="m636 524 2 1c-1.75 4.875-1.75 4.875-4 6-.688-1.813-.688-1.813-1-4 1.438-1.75 1.438-1.75 3-3"/><path fill="#523260" d="m656 760 4 4-4 2v-2h-2z"/><path fill="#57366A" d="m395 760 2 2c-2.944 1.472-5.374.85-8.625.563l-3.602-.31L382 762v-1q3.187-.33 6.375-.625l3.586-.352z"/><path fill="#350F44" d="M614 752h2l2 6-4-1c-.563-1.938-.563-1.938-1-4z"/><path fill="#361141" d="M407 743h3v7l-2 1z"/><path fill="#391149" d="M450 742h5v2l2 1h-7z"/><path fill="#E82957" d="M607 558v2c-1.75 1.29-1.75 1.29-4 2.625l-2.25 1.352L599 565c1.682-3.635 3.58-7 8-7"/><path fill="#E21E58" d="m545 370 8 6-2 2a376 376 0 0 1-3-2.875l-1.688-1.617C545 372 545 372 545 370"/></svg>